0
SECTION
2
HEADER
9
$INSUNITS
70
4
0
ENDSEC
0
SECTION
2
TABLES
0
TABLE
2
LTYPE
0
LTYPE
72
65
70
64
2
CONTINUOUS
3
______
73
0
40
0
0
ENDTAB
0
TABLE
2
LAYER
0
ENDTAB
0
ENDSEC
0
SECTION
2
ENTITIES
0
LINE
8
0
10
237.925
20
-98.5533791
11
200.2023858
21
-94.3285663
0
LINE
8
0
10
199.6458808
20
-94.2975
11
181.4774463
21
-94.2975
0
LINE
8
0
10
180.2897953
20
-94.4405993
11
145.7348489
21
-102.8902717
0
LINE
8
0
10
141.9225
20
-107.7471724
11
141.9225
21
-159.4046567
0
LINE
8
0
10
145.176799
20
-164.0900093
11
210.0485274
21
-188.2603676
0
LINE
8
0
10
210.96311
20
-188.7121765
11
248.8703244
21
-212.5323986
0
LINE
8
0
10
255.3608301
20
-211.5127931
11
266.5567604
21
-198.1700029
0
ARC
8
0
10
199.6458808
20
-99.2975
40
5
50
83.6096818
51
90
0
ARC
8
0
10
181.4774463
20
-99.2975
40
5
50
90
51
103.7408172
0
ARC
8
0
10
146.9225
20
-107.7471724
40
5
50
103.7408172
51
180
0
ARC
8
0
10
146.9225
20
-159.4046567
40
5
50
180
51
249.5652651
0
ARC
8
0
10
208.3028264
20
-192.9457201
40
5
50
57.8554758
51
69.5652651
0
ARC
8
0
10
251.530608
20
-208.298855
40
5
50
237.8554758
51
319.9999988
0
LINE
8
0
10
237.925
20
-98.5533791
11
237.925
21
-169.06875
0
LINE
8
0
10
237.925
20
-169.06875
11
266.5567604
21
-198.1700029
0
LINE
8
0
10
145.4
20
-159.4
11
159.4
21
-159.4
0
LINE
8
0
10
159.4
20
-159.4
11
159.4
21
-145.4
0
LINE
8
0
10
159.4
20
-145.4
11
145.4
21
-145.4
0
LINE
8
0
10
145.4
20
-145.4
11
145.4
21
-159.4
0
LINE
8
0
10
145.4
20
-140.35
11
159.4
21
-140.35
0
LINE
8
0
10
159.4
20
-140.35
11
159.4
21
-126.35
0
LINE
8
0
10
159.4
20
-126.35
11
145.4
21
-126.35
0
LINE
8
0
10
145.4
20
-126.35
11
145.4
21
-140.35
0
LINE
8
0
10
145.4
20
-121.3
11
159.4
21
-121.3
0
LINE
8
0
10
159.4
20
-121.3
11
159.4
21
-107.3
0
LINE
8
0
10
159.4
20
-107.3
11
145.4
21
-107.3
0
LINE
8
0
10
145.4
20
-107.3
11
145.4
21
-121.3
0
LINE
8
0
10
164.4
20
-154.6375
11
178.4
21
-154.6375
0
LINE
8
0
10
178.4
20
-154.6375
11
178.4
21
-140.6375
0
LINE
8
0
10
178.4
20
-140.6375
11
164.4
21
-140.6375
0
LINE
8
0
10
164.4
20
-140.6375
11
164.4
21
-154.6375
0
LINE
8
0
10
164.4
20
-135.5875
11
178.4
21
-135.5875
0
LINE
8
0
10
178.4
20
-135.5875
11
178.4
21
-121.5875
0
LINE
8
0
10
178.4
20
-121.5875
11
164.4
21
-121.5875
0
LINE
8
0
10
164.4
20
-121.5875
11
164.4
21
-135.5875
0
LINE
8
0
10
164.4
20
-116.5375
11
178.4
21
-116.5375
0
LINE
8
0
10
178.4
20
-116.5375
11
178.4
21
-102.5375
0
LINE
8
0
10
178.4
20
-102.5375
11
164.4
21
-102.5375
0
LINE
8
0
10
164.4
20
-102.5375
11
164.4
21
-116.5375
0
LINE
8
0
10
183.4
20
-149.875
11
197.4
21
-149.875
0
LINE
8
0
10
197.4
20
-149.875
11
197.4
21
-135.875
0
LINE
8
0
10
197.4
20
-135.875
11
183.4
21
-135.875
0
LINE
8
0
10
183.4
20
-135.875
11
183.4
21
-149.875
0
LINE
8
0
10
183.4
20
-130.825
11
197.4
21
-130.825
0
LINE
8
0
10
197.4
20
-130.825
11
197.4
21
-116.825
0
LINE
8
0
10
197.4
20
-116.825
11
183.4
21
-116.825
0
LINE
8
0
10
183.4
20
-116.825
11
183.4
21
-130.825
0
LINE
8
0
10
183.4
20
-111.775
11
197.4
21
-111.775
0
LINE
8
0
10
197.4
20
-111.775
11
197.4
21
-97.775
0
LINE
8
0
10
197.4
20
-97.775
11
183.4
21
-97.775
0
LINE
8
0
10
183.4
20
-97.775
11
183.4
21
-111.775
0
LINE
8
0
10
202.4
20
-154.6375
11
216.4
21
-154.6375
0
LINE
8
0
10
216.4
20
-154.6375
11
216.4
21
-140.6375
0
LINE
8
0
10
216.4
20
-140.6375
11
202.4
21
-140.6375
0
LINE
8
0
10
202.4
20
-140.6375
11
202.4
21
-154.6375
0
LINE
8
0
10
202.4
20
-135.5875
11
216.4
21
-135.5875
0
LINE
8
0
10
216.4
20
-135.5875
11
216.4
21
-121.5875
0
LINE
8
0
10
216.4
20
-121.5875
11
202.4
21
-121.5875
0
LINE
8
0
10
202.4
20
-121.5875
11
202.4
21
-135.5875
0
LINE
8
0
10
202.4
20
-116.5375
11
216.4
21
-116.5375
0
LINE
8
0
10
216.4
20
-116.5375
11
216.4
21
-102.5375
0
LINE
8
0
10
216.4
20
-102.5375
11
202.4
21
-102.5375
0
LINE
8
0
10
202.4
20
-102.5375
11
202.4
21
-116.5375
0
LINE
8
0
10
221.4
20
-157.01875
11
235.4
21
-157.01875
0
LINE
8
0
10
235.4
20
-157.01875
11
235.4
21
-143.01875
0
LINE
8
0
10
235.4
20
-143.01875
11
221.4
21
-143.01875
0
LINE
8
0
10
221.4
20
-143.01875
11
221.4
21
-157.01875
0
LINE
8
0
10
221.4
20
-137.96875
11
235.4
21
-137.96875
0
LINE
8
0
10
235.4
20
-137.96875
11
235.4
21
-123.96875
0
LINE
8
0
10
235.4
20
-123.96875
11
221.4
21
-123.96875
0
LINE
8
0
10
221.4
20
-123.96875
11
221.4
21
-137.96875
0
LINE
8
0
10
221.4
20
-118.91875
11
235.4
21
-118.91875
0
LINE
8
0
10
235.4
20
-118.91875
11
235.4
21
-104.91875
0
LINE
8
0
10
235.4
20
-104.91875
11
221.4
21
-104.91875
0
LINE
8
0
10
221.4
20
-104.91875
11
221.4
21
-118.91875
0
LINE
8
0
10
205.1405107
20
-182.7774573
11
218.2962073
21
-187.5657393
0
LINE
8
0
10
218.2962073
20
-187.5657393
11
223.0844893
21
-174.4100427
0
LINE
8
0
10
223.0844893
20
-174.4100427
11
209.9287927
21
-169.6217607
0
LINE
8
0
10
209.9287927
20
-169.6217607
11
205.1405107
21
-182.7774573
0
LINE
8
0
10
224.1647746
20
-190.3203943
11
236.2891302
21
-197.3203943
0
LINE
8
0
10
236.2891302
20
-197.3203943
11
243.2891302
21
-185.1960387
0
LINE
8
0
10
243.2891302
20
-185.1960387
11
231.1647746
21
-178.1960387
0
LINE
8
0
10
231.1647746
20
-178.1960387
11
224.1647746
21
-190.3203943
0
LINE
8
0
10
241.4066241
20
-200.952605
11
252.1312463
21
-209.9516316
0
LINE
8
0
10
252.1312463
20
-209.9516316
11
261.1302729
21
-199.2270094
0
LINE
8
0
10
261.1302729
20
-199.2270094
11
250.4056507
21
-190.2279828
0
LINE
8
0
10
250.4056507
20
-190.2279828
11
241.4066241
21
-200.952605
0
ENDSEC
0
EOF