0
SECTION
2
HEADER
9
$INSUNITS
70
4
0
ENDSEC
0
SECTION
2
TABLES
0
TABLE
2
LTYPE
0
LTYPE
72
65
70
64
2
CONTINUOUS
3
______
73
0
40
0
0
ENDTAB
0
TABLE
2
LAYER
0
ENDTAB
0
ENDSEC
0
SECTION
2
ENTITIES
0
LINE
8
0
10
242.6875
20
-96.108705
11
191.198643
21
-88.6974558
0
LINE
8
0
10
189.605737
20
-88.7245991
11
164.3199497
21
-93.2483993
0
LINE
8
0
10
163.2738356
20
-93.5563641
11
144.043333
21
-101.5866376
0
LINE
8
0
10
140.97
20
-106.2005247
11
140.97
21
-160.108404
0
LINE
8
0
10
144.5350394
20
-164.8980687
11
209.5521762
21
-184.3768902
0
LINE
8
0
10
210.7785621
20
-184.9336794
11
248.2577161
21
-208.4980419
0
LINE
8
0
10
254.7492847
20
-207.4791046
11
267.2692629
21
-192.5583756
0
ARC
8
0
10
190.48629
20
-93.646451
40
5
50
81.8091652
51
100.1432945
0
ARC
8
0
10
165.2005026
20
-98.1702512
40
5
50
100.1432945
51
112.6644402
0
ARC
8
0
10
145.97
20
-106.2005247
40
5
50
112.6644402
51
180
0
ARC
8
0
10
145.97
20
-160.108404
40
5
50
180
51
253.3220364
0
ARC
8
0
10
208.1172156
20
-189.1665548
40
5
50
57.8410892
51
73.3220364
0
ARC
8
0
10
250.9190626
20
-204.2651664
40
5
50
237.8410892
51
319.9999988
0
ARC
8
0
10
263.4390407
20
-189.3444375
40
5
50
319.9999988
51
350.0989868
0
LINE
8
0
10
242.6875
20
-96.108705
11
242.6875
21
-159.54375
0
LINE
8
0
10
242.6875
20
-159.54375
11
268.3645721
21
-190.2041701
0
LINE
8
0
10
145.4
20
-159.4
11
159.4
21
-159.4
0
LINE
8
0
10
159.4
20
-159.4
11
159.4
21
-145.4
0
LINE
8
0
10
159.4
20
-145.4
11
145.4
21
-145.4
0
LINE
8
0
10
145.4
20
-145.4
11
145.4
21
-159.4
0
LINE
8
0
10
145.4
20
-140.35
11
159.4
21
-140.35
0
LINE
8
0
10
159.4
20
-140.35
11
159.4
21
-126.35
0
LINE
8
0
10
159.4
20
-126.35
11
145.4
21
-126.35
0
LINE
8
0
10
145.4
20
-126.35
11
145.4
21
-140.35
0
LINE
8
0
10
145.4
20
-121.3
11
159.4
21
-121.3
0
LINE
8
0
10
159.4
20
-121.3
11
159.4
21
-107.3
0
LINE
8
0
10
159.4
20
-107.3
11
145.4
21
-107.3
0
LINE
8
0
10
145.4
20
-107.3
11
145.4
21
-121.3
0
LINE
8
0
10
164.4
20
-149.875
11
178.4
21
-149.875
0
LINE
8
0
10
178.4
20
-149.875
11
178.4
21
-135.875
0
LINE
8
0
10
178.4
20
-135.875
11
164.4
21
-135.875
0
LINE
8
0
10
164.4
20
-135.875
11
164.4
21
-149.875
0
LINE
8
0
10
164.4
20
-130.825
11
178.4
21
-130.825
0
LINE
8
0
10
178.4
20
-130.825
11
178.4
21
-116.825
0
LINE
8
0
10
178.4
20
-116.825
11
164.4
21
-116.825
0
LINE
8
0
10
164.4
20
-116.825
11
164.4
21
-130.825
0
LINE
8
0
10
164.4
20
-111.775
11
178.4
21
-111.775
0
LINE
8
0
10
178.4
20
-111.775
11
178.4
21
-97.775
0
LINE
8
0
10
178.4
20
-97.775
11
164.4
21
-97.775
0
LINE
8
0
10
164.4
20
-97.775
11
164.4
21
-111.775
0
LINE
8
0
10
183.4
20
-145.1125
11
197.4
21
-145.1125
0
LINE
8
0
10
197.4
20
-145.1125
11
197.4
21
-131.1125
0
LINE
8
0
10
197.4
20
-131.1125
11
183.4
21
-131.1125
0
LINE
8
0
10
183.4
20
-131.1125
11
183.4
21
-145.1125
0
LINE
8
0
10
183.4
20
-126.0625
11
197.4
21
-126.0625
0
LINE
8
0
10
197.4
20
-126.0625
11
197.4
21
-112.0625
0
LINE
8
0
10
197.4
20
-112.0625
11
183.4
21
-112.0625
0
LINE
8
0
10
183.4
20
-112.0625
11
183.4
21
-126.0625
0
LINE
8
0
10
183.4
20
-107.0125
11
197.4
21
-107.0125
0
LINE
8
0
10
197.4
20
-107.0125
11
197.4
21
-93.0125
0
LINE
8
0
10
197.4
20
-93.0125
11
183.4
21
-93.0125
0
LINE
8
0
10
183.4
20
-93.0125
11
183.4
21
-107.0125
0
LINE
8
0
10
202.4
20
-149.875
11
216.4
21
-149.875
0
LINE
8
0
10
216.4
20
-149.875
11
216.4
21
-135.875
0
LINE
8
0
10
216.4
20
-135.875
11
202.4
21
-135.875
0
LINE
8
0
10
202.4
20
-135.875
11
202.4
21
-149.875
0
LINE
8
0
10
202.4
20
-130.825
11
216.4
21
-130.825
0
LINE
8
0
10
216.4
20
-130.825
11
216.4
21
-116.825
0
LINE
8
0
10
216.4
20
-116.825
11
202.4
21
-116.825
0
LINE
8
0
10
202.4
20
-116.825
11
202.4
21
-130.825
0
LINE
8
0
10
202.4
20
-111.775
11
216.4
21
-111.775
0
LINE
8
0
10
216.4
20
-111.775
11
216.4
21
-97.775
0
LINE
8
0
10
216.4
20
-97.775
11
202.4
21
-97.775
0
LINE
8
0
10
202.4
20
-97.775
11
202.4
21
-111.775
0
LINE
8
0
10
221.4
20
-152.25625
11
235.4
21
-152.25625
0
LINE
8
0
10
235.4
20
-152.25625
11
235.4
21
-138.25625
0
LINE
8
0
10
235.4
20
-138.25625
11
221.4
21
-138.25625
0
LINE
8
0
10
221.4
20
-138.25625
11
221.4
21
-152.25625
0
LINE
8
0
10
221.4
20
-133.20625
11
235.4
21
-133.20625
0
LINE
8
0
10
235.4
20
-133.20625
11
235.4
21
-119.20625
0
LINE
8
0
10
235.4
20
-119.20625
11
221.4
21
-119.20625
0
LINE
8
0
10
221.4
20
-119.20625
11
221.4
21
-133.20625
0
LINE
8
0
10
221.4
20
-114.15625
11
235.4
21
-114.15625
0
LINE
8
0
10
235.4
20
-114.15625
11
235.4
21
-100.15625
0
LINE
8
0
10
235.4
20
-100.15625
11
221.4
21
-100.15625
0
LINE
8
0
10
221.4
20
-100.15625
11
221.4
21
-114.15625
0
LINE
8
0
10
205.1405107
20
-178.0149573
11
218.2962073
21
-182.8032393
0
LINE
8
0
10
218.2962073
20
-182.8032393
11
223.0844893
21
-169.6475427
0
LINE
8
0
10
223.0844893
20
-169.6475427
11
209.9287927
21
-164.8592607
0
LINE
8
0
10
209.9287927
20
-164.8592607
11
205.1405107
21
-178.0149573
0
LINE
8
0
10
223.75233
20
-185.3197693
11
235.8766856
21
-192.3197693
0
LINE
8
0
10
235.8766856
20
-192.3197693
11
242.8766856
21
-180.1954137
0
LINE
8
0
10
242.8766856
20
-180.1954137
11
230.75233
21
-173.1954137
0
LINE
8
0
10
230.75233
20
-173.1954137
11
223.75233
21
-185.3197693
0
LINE
8
0
10
240.6769668
20
-195.5778498
11
251.401589
21
-204.5768764
0
LINE
8
0
10
251.401589
20
-204.5768764
11
260.4006156
21
-193.8522542
0
LINE
8
0
10
260.4006156
20
-193.8522542
11
249.6759934
21
-184.8532276
0
LINE
8
0
10
249.6759934
20
-184.8532276
11
240.6769668
21
-195.5778498
0
ENDSEC
0
EOF