0
SECTION
2
HEADER
9
$INSUNITS
70
4
0
ENDSEC
0
SECTION
2
TABLES
0
TABLE
2
LTYPE
0
LTYPE
72
65
70
64
2
CONTINUOUS
3
______
73
0
40
0
0
ENDTAB
0
TABLE
2
LAYER
0
ENDTAB
0
ENDSEC
0
SECTION
2
ENTITIES
0
LINE
8
0
10
174.7899329
20
-88.7371456
11
142.1988534
21
-102.3564802
0
LINE
8
0
10
140.97
20
-104.2018346
11
140.97
21
-162.188045
0
LINE
8
0
10
142.5805196
20
-164.1497547
11
221.4650307
21
-179.8115922
0
LINE
8
0
10
221.8299036
20
-179.9210193
11
265.7058186
21
-197.7897533
0
LINE
8
0
10
268.1922228
20
-196.9374707
11
278.3956841
21
-179.2645573
0
LINE
8
0
10
278.6386217
20
-177.9492465
11
278.3115418
21
-175.9005416
0
LINE
8
0
10
242.6875
20
-99.53625
11
228.6038481
21
-98.1278848
0
LINE
8
0
10
228.2045173
20
-98.0462106
11
198.3121578
21
-88.6740998
0
LINE
8
0
10
197.7138196
20
-88.5825
11
175.5610795
21
-88.5825
0
ARC
8
0
10
142.97
20
-104.2018346
40
2
50
112.6793362
51
180
0
ARC
8
0
10
142.97
20
-162.188045
40
2
50
180
51
258.7704521
0
ARC
8
0
10
221.0755502
20
-181.7733019
40
2
50
67.8410894
51
78.7704521
0
ARC
8
0
10
266.460172
20
-195.9374707
40
2
50
247.8410894
51
329.9999999
0
ARC
8
0
10
276.6636333
20
-178.2645573
40
2
50
329.9999999
51
9.0708333
0
ARC
8
0
10
228.8028555
20
-96.1378104
40
2
50
252.5922956
51
264.289408
0
ARC
8
0
10
197.7138196
20
-90.5825
40
2
50
72.5922956
51
90
0
ARC
8
0
10
175.5610795
20
-90.5825
40
2
50
90
51
112.6793362
0
LINE
8
0
10
242.6875
20
-99.53625
11
242.6875
21
-161.925
0
LINE
8
0
10
242.6875
20
-161.925
11
278.3115418
21
-175.9005416
0
LINE
8
0
10
145.4
20
-159.4
11
159.4
21
-159.4
0
LINE
8
0
10
159.4
20
-159.4
11
159.4
21
-145.4
0
LINE
8
0
10
159.4
20
-145.4
11
145.4
21
-145.4
0
LINE
8
0
10
145.4
20
-145.4
11
145.4
21
-159.4
0
LINE
8
0
10
145.4
20
-140.35
11
159.4
21
-140.35
0
LINE
8
0
10
159.4
20
-140.35
11
159.4
21
-126.35
0
LINE
8
0
10
159.4
20
-126.35
11
145.4
21
-126.35
0
LINE
8
0
10
145.4
20
-126.35
11
145.4
21
-140.35
0
LINE
8
0
10
145.4
20
-121.3
11
159.4
21
-121.3
0
LINE
8
0
10
159.4
20
-121.3
11
159.4
21
-107.3
0
LINE
8
0
10
159.4
20
-107.3
11
145.4
21
-107.3
0
LINE
8
0
10
145.4
20
-107.3
11
145.4
21
-121.3
0
LINE
8
0
10
164.4
20
-149.875
11
178.4
21
-149.875
0
LINE
8
0
10
178.4
20
-149.875
11
178.4
21
-135.875
0
LINE
8
0
10
178.4
20
-135.875
11
164.4
21
-135.875
0
LINE
8
0
10
164.4
20
-135.875
11
164.4
21
-149.875
0
LINE
8
0
10
164.4
20
-130.825
11
178.4
21
-130.825
0
LINE
8
0
10
178.4
20
-130.825
11
178.4
21
-116.825
0
LINE
8
0
10
178.4
20
-116.825
11
164.4
21
-116.825
0
LINE
8
0
10
164.4
20
-116.825
11
164.4
21
-130.825
0
LINE
8
0
10
164.4
20
-111.775
11
178.4
21
-111.775
0
LINE
8
0
10
178.4
20
-111.775
11
178.4
21
-97.775
0
LINE
8
0
10
178.4
20
-97.775
11
164.4
21
-97.775
0
LINE
8
0
10
164.4
20
-97.775
11
164.4
21
-111.775
0
LINE
8
0
10
183.4
20
-145.1125
11
197.4
21
-145.1125
0
LINE
8
0
10
197.4
20
-145.1125
11
197.4
21
-131.1125
0
LINE
8
0
10
197.4
20
-131.1125
11
183.4
21
-131.1125
0
LINE
8
0
10
183.4
20
-131.1125
11
183.4
21
-145.1125
0
LINE
8
0
10
183.4
20
-126.0625
11
197.4
21
-126.0625
0
LINE
8
0
10
197.4
20
-126.0625
11
197.4
21
-112.0625
0
LINE
8
0
10
197.4
20
-112.0625
11
183.4
21
-112.0625
0
LINE
8
0
10
183.4
20
-112.0625
11
183.4
21
-126.0625
0
LINE
8
0
10
183.4
20
-107.0125
11
197.4
21
-107.0125
0
LINE
8
0
10
197.4
20
-107.0125
11
197.4
21
-93.0125
0
LINE
8
0
10
197.4
20
-93.0125
11
183.4
21
-93.0125
0
LINE
8
0
10
183.4
20
-93.0125
11
183.4
21
-107.0125
0
LINE
8
0
10
202.4
20
-152.7325
11
216.4
21
-152.7325
0
LINE
8
0
10
216.4
20
-152.7325
11
216.4
21
-138.7325
0
LINE
8
0
10
216.4
20
-138.7325
11
202.4
21
-138.7325
0
LINE
8
0
10
202.4
20
-138.7325
11
202.4
21
-152.7325
0
LINE
8
0
10
202.4
20
-133.6825
11
216.4
21
-133.6825
0
LINE
8
0
10
216.4
20
-133.6825
11
216.4
21
-119.6825
0
LINE
8
0
10
216.4
20
-119.6825
11
202.4
21
-119.6825
0
LINE
8
0
10
202.4
20
-119.6825
11
202.4
21
-133.6825
0
LINE
8
0
10
202.4
20
-114.6325
11
216.4
21
-114.6325
0
LINE
8
0
10
216.4
20
-114.6325
11
216.4
21
-100.6325
0
LINE
8
0
10
216.4
20
-100.6325
11
202.4
21
-100.6325
0
LINE
8
0
10
202.4
20
-100.6325
11
202.4
21
-114.6325
0
LINE
8
0
10
221.4
20
-154.6375
11
235.4
21
-154.6375
0
LINE
8
0
10
235.4
20
-154.6375
11
235.4
21
-140.6375
0
LINE
8
0
10
235.4
20
-140.6375
11
221.4
21
-140.6375
0
LINE
8
0
10
221.4
20
-140.6375
11
221.4
21
-154.6375
0
LINE
8
0
10
221.4
20
-135.5875
11
235.4
21
-135.5875
0
LINE
8
0
10
235.4
20
-135.5875
11
235.4
21
-121.5875
0
LINE
8
0
10
235.4
20
-121.5875
11
221.4
21
-121.5875
0
LINE
8
0
10
221.4
20
-121.5875
11
221.4
21
-135.5875
0
LINE
8
0
10
221.4
20
-116.5375
11
235.4
21
-116.5375
0
LINE
8
0
10
235.4
20
-116.5375
11
235.4
21
-102.5375
0
LINE
8
0
10
235.4
20
-102.5375
11
221.4
21
-102.5375
0
LINE
8
0
10
221.4
20
-102.5375
11
221.4
21
-116.5375
0
LINE
8
0
10
215.5283085
20
-174.270617
11
229.315617
21
-176.7016915
0
LINE
8
0
10
229.315617
20
-176.7016915
11
231.7466915
21
-162.914383
0
LINE
8
0
10
231.7466915
20
-162.914383
11
217.959383
21
-160.4833085
0
LINE
8
0
10
217.959383
20
-160.4833085
11
215.5283085
21
-174.270617
0
LINE
8
0
10
235.1258398
20
-178.232544
11
248.2815364
21
-183.020826
0
LINE
8
0
10
248.2815364
20
-183.020826
11
253.0698184
21
-169.8651294
0
LINE
8
0
10
253.0698184
20
-169.8651294
11
239.9141218
21
-165.0768474
0
LINE
8
0
10
239.9141218
20
-165.0768474
11
235.1258398
21
-178.232544
0
LINE
8
0
10
253.5746503
20
-185.3958489
11
265.6990059
21
-192.3958489
0
LINE
8
0
10
265.6990059
20
-192.3958489
11
272.6990059
21
-180.2714933
0
LINE
8
0
10
272.6990059
20
-180.2714933
11
260.5746503
21
-173.2714933
0
LINE
8
0
10
260.5746503
20
-173.2714933
11
253.5746503
21
-185.3958489
0
ENDSEC
0
EOF