%TF.GenerationSoftware,KiCad,Pcbnew,7.0.1*%
%TF.CreationDate,2023-03-26T00:05:18-04:00*%
%TF.ProjectId,giraffe36_pcb_routed,67697261-6666-4653-9336-5f7063625f72,v1.0.0*%
%TF.SameCoordinates,Original*%
%TF.FileFunction,Legend,Bot*%
%TF.FilePolarity,Positive*%
%FSLAX46Y46*%
G04 Gerber Fmt 4.6, Leading zero omitted, Abs format (unit mm)*
G04 Created by KiCad (PCBNEW 7.0.1) date 2023-03-26 00:05:18*
%MOMM*%
%LPD*%
G01*
G04 APERTURE LIST*
G04 Aperture macros list*
%AMRoundRect*
0 Rectangle with rounded corners*
0 $1 Rounding radius*
0 $2 $3 $4 $5 $6 $7 $8 $9 X,Y pos of 4 corners*
0 Add a 4 corners polygon primitive as box body*
4,1,4,$2,$3,$4,$5,$6,$7,$8,$9,$2,$3,0*
0 Add four circle primitives for the rounded corners*
1,1,$1+$1,$2,$3*
1,1,$1+$1,$4,$5*
1,1,$1+$1,$6,$7*
1,1,$1+$1,$8,$9*
0 Add four rect primitives between the rounded corners*
20,1,$1+$1,$2,$3,$4,$5,0*
20,1,$1+$1,$4,$5,$6,$7,0*
20,1,$1+$1,$6,$7,$8,$9,0*
20,1,$1+$1,$8,$9,$2,$3,0*%
G04 Aperture macros list end*
%ADD10C,0.150000*%
%ADD11C,1.801800*%
%ADD12C,4.087800*%
%ADD13C,2.386000*%
%ADD14O,1.940000X1.800000*%
%ADD15RoundRect,0.050000X-0.920000X-0.850000X0.920000X-0.850000X0.920000X0.850000X-0.920000X0.850000X0*%
%ADD16C,1.600000*%
%ADD17O,1.700000X2.300000*%
G04 APERTURE END LIST*
D10*
X224385814Y-193128017D02*
X223981052Y-193829085D01*
X223981052Y-193829085D02*
X223892194Y-193887754D01*
X223892194Y-193887754D02*
X223827145Y-193905184D01*
X223827145Y-193905184D02*
X223720857Y-193898804D01*
X223720857Y-193898804D02*
X223597139Y-193827376D01*
X223597139Y-193827376D02*
X223538470Y-193738517D01*
X224076290Y-193664128D02*
X223970002Y-193657748D01*
X223970002Y-193657748D02*
X223805045Y-193562510D01*
X223805045Y-193562510D02*
X223746376Y-193473652D01*
X223746376Y-193473652D02*
X223728946Y-193408603D01*
X223728946Y-193408603D02*
X223735326Y-193302315D01*
X223735326Y-193302315D02*
X223878183Y-193054879D01*
X223878183Y-193054879D02*
X223967041Y-192996210D01*
X223967041Y-192996210D02*
X224032090Y-192978780D01*
X224032090Y-192978780D02*
X224138378Y-192985160D01*
X224138378Y-192985160D02*
X224303335Y-193080398D01*
X224303335Y-193080398D02*
X224362004Y-193169256D01*
X224464874Y-193943462D02*
X224798207Y-193366112D01*
X224964874Y-193077437D02*
X224899825Y-193094867D01*
X224899825Y-193094867D02*
X224917255Y-193159916D01*
X224917255Y-193159916D02*
X224982303Y-193142486D01*
X224982303Y-193142486D02*
X224964874Y-193077437D01*
X224964874Y-193077437D02*
X224917255Y-193159916D01*
X224877266Y-194181557D02*
X225210600Y-193604207D01*
X225115362Y-193769164D02*
X225204220Y-193710495D01*
X225204220Y-193710495D02*
X225269269Y-193693066D01*
X225269269Y-193693066D02*
X225375557Y-193699445D01*
X225375557Y-193699445D02*
X225458035Y-193747064D01*
X225784531Y-194705367D02*
X226046436Y-194251735D01*
X226046436Y-194251735D02*
X226052816Y-194145447D01*
X226052816Y-194145447D02*
X225994147Y-194056588D01*
X225994147Y-194056588D02*
X225829190Y-193961350D01*
X225829190Y-193961350D02*
X225722901Y-193954971D01*
X225808341Y-194664128D02*
X225702053Y-194657748D01*
X225702053Y-194657748D02*
X225495856Y-194538701D01*
X225495856Y-194538701D02*
X225437187Y-194449842D01*
X225437187Y-194449842D02*
X225443567Y-194343554D01*
X225443567Y-194343554D02*
X225491186Y-194261075D01*
X225491186Y-194261075D02*
X225580044Y-194202406D01*
X225580044Y-194202406D02*
X225686332Y-194208786D01*
X225686332Y-194208786D02*
X225892529Y-194327834D01*
X225892529Y-194327834D02*
X225998817Y-194334213D01*
X226406540Y-194294684D02*
X226736454Y-194485160D01*
X226196924Y-194943462D02*
X226625496Y-194201155D01*
X226625496Y-194201155D02*
X226714354Y-194142486D01*
X226714354Y-194142486D02*
X226820642Y-194148866D01*
X226820642Y-194148866D02*
X226903121Y-194196485D01*
X226901412Y-194580398D02*
X227231326Y-194770874D01*
X226691796Y-195229177D02*
X227120368Y-194486869D01*
X227120368Y-194486869D02*
X227209226Y-194428200D01*
X227209226Y-194428200D02*
X227315514Y-194434580D01*
X227315514Y-194434580D02*
X227397993Y-194482199D01*
X227540392Y-195664128D02*
X227434104Y-195657749D01*
X227434104Y-195657749D02*
X227269147Y-195562511D01*
X227269147Y-195562511D02*
X227210478Y-195473652D01*
X227210478Y-195473652D02*
X227216858Y-195367364D01*
X227216858Y-195367364D02*
X227407334Y-195037450D01*
X227407334Y-195037450D02*
X227496192Y-194978781D01*
X227496192Y-194978781D02*
X227602480Y-194985160D01*
X227602480Y-194985160D02*
X227767438Y-195080398D01*
X227767438Y-195080398D02*
X227826107Y-195169257D01*
X227826107Y-195169257D02*
X227819727Y-195275545D01*
X227819727Y-195275545D02*
X227772108Y-195358023D01*
X227772108Y-195358023D02*
X227312096Y-195202407D01*
X228346497Y-195029819D02*
X228882608Y-195339342D01*
X228882608Y-195339342D02*
X228403457Y-195502590D01*
X228403457Y-195502590D02*
X228527175Y-195574019D01*
X228527175Y-195574019D02*
X228585844Y-195662877D01*
X228585844Y-195662877D02*
X228603274Y-195727926D01*
X228603274Y-195727926D02*
X228596894Y-195834214D01*
X228596894Y-195834214D02*
X228477847Y-196040411D01*
X228477847Y-196040411D02*
X228388988Y-196099080D01*
X228388988Y-196099080D02*
X228323939Y-196116509D01*
X228323939Y-196116509D02*
X228217651Y-196110130D01*
X228217651Y-196110130D02*
X227970215Y-195967272D01*
X227970215Y-195967272D02*
X227911546Y-195878414D01*
X227911546Y-195878414D02*
X227894117Y-195813365D01*
X229624916Y-195767914D02*
X229459959Y-195672676D01*
X229459959Y-195672676D02*
X229353671Y-195666296D01*
X229353671Y-195666296D02*
X229288622Y-195683726D01*
X229288622Y-195683726D02*
X229134715Y-195759825D01*
X229134715Y-195759825D02*
X228998237Y-195900972D01*
X228998237Y-195900972D02*
X228807761Y-196230887D01*
X228807761Y-196230887D02*
X228801381Y-196337175D01*
X228801381Y-196337175D02*
X228818811Y-196402224D01*
X228818811Y-196402224D02*
X228877480Y-196491082D01*
X228877480Y-196491082D02*
X229042437Y-196586320D01*
X229042437Y-196586320D02*
X229148726Y-196592700D01*
X229148726Y-196592700D02*
X229213774Y-196575270D01*
X229213774Y-196575270D02*
X229302633Y-196516601D01*
X229302633Y-196516601D02*
X229421680Y-196310404D01*
X229421680Y-196310404D02*
X229428060Y-196204116D01*
X229428060Y-196204116D02*
X229410630Y-196139068D01*
X229410630Y-196139068D02*
X229351961Y-196050209D01*
X229351961Y-196050209D02*
X229187004Y-195954971D01*
X229187004Y-195954971D02*
X229080716Y-195948591D01*
X229080716Y-195948591D02*
X229015667Y-195966021D01*
X229015667Y-195966021D02*
X228926809Y-196024690D01*
X230489232Y-196651827D02*
X230362095Y-197348225D01*
X230362095Y-197348225D02*
X230901625Y-196889922D01*
X231563164Y-196886962D02*
X231645642Y-196934581D01*
X231645642Y-196934581D02*
X231704311Y-197023439D01*
X231704311Y-197023439D02*
X231721741Y-197088488D01*
X231721741Y-197088488D02*
X231715362Y-197194776D01*
X231715362Y-197194776D02*
X231661363Y-197383543D01*
X231661363Y-197383543D02*
X231542315Y-197589739D01*
X231542315Y-197589739D02*
X231405838Y-197730887D01*
X231405838Y-197730887D02*
X231316979Y-197789556D01*
X231316979Y-197789556D02*
X231251931Y-197806986D01*
X231251931Y-197806986D02*
X231145642Y-197800606D01*
X231145642Y-197800606D02*
X231063164Y-197752987D01*
X231063164Y-197752987D02*
X231004495Y-197664129D01*
X231004495Y-197664129D02*
X230987065Y-197599080D01*
X230987065Y-197599080D02*
X230993445Y-197492792D01*
X230993445Y-197492792D02*
X231047443Y-197304025D01*
X231047443Y-197304025D02*
X231166491Y-197097828D01*
X231166491Y-197097828D02*
X231302968Y-196956681D01*
X231302968Y-196956681D02*
X231391827Y-196898012D01*
X231391827Y-196898012D02*
X231456876Y-196880582D01*
X231456876Y-196880582D02*
X231563164Y-196886962D01*
X231770612Y-198051461D02*
X231788042Y-198116510D01*
X231788042Y-198116510D02*
X231722993Y-198133939D01*
X231722993Y-198133939D02*
X231705563Y-198068891D01*
X231705563Y-198068891D02*
X231770612Y-198051461D01*
X231770612Y-198051461D02*
X231722993Y-198133939D01*
X232800343Y-197601247D02*
X232882821Y-197648866D01*
X232882821Y-197648866D02*
X232941490Y-197737725D01*
X232941490Y-197737725D02*
X232958920Y-197802773D01*
X232958920Y-197802773D02*
X232952540Y-197909062D01*
X232952540Y-197909062D02*
X232898541Y-198097828D01*
X232898541Y-198097828D02*
X232779494Y-198304025D01*
X232779494Y-198304025D02*
X232643016Y-198445172D01*
X232643016Y-198445172D02*
X232554158Y-198503842D01*
X232554158Y-198503842D02*
X232489109Y-198521271D01*
X232489109Y-198521271D02*
X232382821Y-198514892D01*
X232382821Y-198514892D02*
X232300343Y-198467273D01*
X232300343Y-198467273D02*
X232241673Y-198378414D01*
X232241673Y-198378414D02*
X232224244Y-198313365D01*
X232224244Y-198313365D02*
X232230623Y-198207077D01*
X232230623Y-198207077D02*
X232284622Y-198018311D01*
X232284622Y-198018311D02*
X232403670Y-197812114D01*
X232403670Y-197812114D02*
X232540147Y-197670966D01*
X232540147Y-197670966D02*
X232629006Y-197612297D01*
X232629006Y-197612297D02*
X232694054Y-197594867D01*
X232694054Y-197594867D02*
X232800343Y-197601247D01*
X233007791Y-198765746D02*
X233025220Y-198830795D01*
X233025220Y-198830795D02*
X232960171Y-198848225D01*
X232960171Y-198848225D02*
X232942742Y-198783176D01*
X232942742Y-198783176D02*
X233007791Y-198765746D01*
X233007791Y-198765746D02*
X232960171Y-198848225D01*
X233826196Y-199348225D02*
X233331325Y-199062510D01*
X233578761Y-199205368D02*
X234078761Y-198339342D01*
X234078761Y-198339342D02*
X233924853Y-198415441D01*
X233924853Y-198415441D02*
X233794756Y-198450301D01*
X233794756Y-198450301D02*
X233688468Y-198443921D01*
%LPC*%
D11*
%TO.C,S7*%
X185320000Y-142875000D03*
D12*
X190400000Y-142875000D03*
D11*
X195480000Y-142875000D03*
D13*
X187860000Y-137795000D03*
X192940000Y-137795000D03*
X186590000Y-140335000D03*
X194210000Y-140335000D03*
%TD*%
D14*
%TO.C,U0*%
X240535000Y-104933750D03*
X240535000Y-107473750D03*
D15*
X240535000Y-110013750D03*
D14*
X240535000Y-112553750D03*
X240535000Y-115093750D03*
X240535000Y-117633750D03*
X240535000Y-120173750D03*
D15*
X240535000Y-122713750D03*
D14*
X240535000Y-125253750D03*
X240535000Y-127793750D03*
X240535000Y-130333750D03*
X240535000Y-132873750D03*
D15*
X240535000Y-135413750D03*
D14*
X240535000Y-137953750D03*
X240535000Y-140493750D03*
X240535000Y-143033750D03*
X240535000Y-145573750D03*
D15*
X240535000Y-148113750D03*
D14*
X240535000Y-150653750D03*
X240535000Y-153193750D03*
X258175000Y-153193750D03*
X258175000Y-150653750D03*
D15*
X258175000Y-148113750D03*
D14*
X258175000Y-145573750D03*
X258175000Y-143033750D03*
X258175000Y-140493750D03*
X258175000Y-137953750D03*
D15*
X258175000Y-135413750D03*
D14*
X258175000Y-132873750D03*
X258175000Y-130333750D03*
X258175000Y-127793750D03*
X258175000Y-125253750D03*
D15*
X258175000Y-122713750D03*
D14*
X258175000Y-120173750D03*
X258175000Y-117633750D03*
X258175000Y-115093750D03*
X258175000Y-112553750D03*
D15*
X258175000Y-110013750D03*
D14*
X258175000Y-107473750D03*
X258175000Y-104933750D03*
%TD*%
D11*
%TO.C,S12*%
X204320000Y-109537500D03*
D12*
X209400000Y-109537500D03*
D11*
X214480000Y-109537500D03*
D13*
X206860000Y-104457500D03*
X211940000Y-104457500D03*
X205590000Y-106997500D03*
X213210000Y-106997500D03*
%TD*%
D11*
%TO.C,S11*%
X204320000Y-128587500D03*
D12*
X209400000Y-128587500D03*
D11*
X214480000Y-128587500D03*
D13*
X206860000Y-123507500D03*
X211940000Y-123507500D03*
X205590000Y-126047500D03*
X213210000Y-126047500D03*
%TD*%
D11*
%TO.C,S15*%
X223320000Y-111918750D03*
D12*
X228400000Y-111918750D03*
D11*
X233480000Y-111918750D03*
D13*
X225860000Y-106838750D03*
X230940000Y-106838750D03*
X224590000Y-109378750D03*
X232210000Y-109378750D03*
%TD*%
D11*
%TO.C,S2*%
X147320000Y-133350000D03*
D12*
X152400000Y-133350000D03*
D11*
X157480000Y-133350000D03*
D13*
X149860000Y-128270000D03*
X154940000Y-128270000D03*
X148590000Y-130810000D03*
X156210000Y-130810000D03*
%TD*%
D11*
%TO.C,S18*%
X247376943Y-196824446D03*
D12*
X251268449Y-200089807D03*
D11*
X255159955Y-203355168D03*
D13*
X252588057Y-194565621D03*
X256479563Y-197830982D03*
X249982500Y-195695033D03*
X255819759Y-200593075D03*
%TD*%
D11*
%TO.C,S9*%
X185320000Y-104775000D03*
D12*
X190400000Y-104775000D03*
D11*
X195480000Y-104775000D03*
D13*
X187860000Y-99695000D03*
X192940000Y-99695000D03*
X186590000Y-102235000D03*
X194210000Y-102235000D03*
%TD*%
D11*
%TO.C,S3*%
X147320000Y-114300000D03*
D12*
X152400000Y-114300000D03*
D11*
X157480000Y-114300000D03*
D13*
X149860000Y-109220000D03*
X154940000Y-109220000D03*
X148590000Y-111760000D03*
X156210000Y-111760000D03*
%TD*%
D11*
%TO.C,S6*%
X166320000Y-109537500D03*
D12*
X171400000Y-109537500D03*
D11*
X176480000Y-109537500D03*
D13*
X168860000Y-104457500D03*
X173940000Y-104457500D03*
X167590000Y-106997500D03*
X175210000Y-106997500D03*
%TD*%
D11*
%TO.C,S10*%
X204320000Y-147637500D03*
D12*
X209400000Y-147637500D03*
D11*
X214480000Y-147637500D03*
D13*
X206860000Y-142557500D03*
X211940000Y-142557500D03*
X205590000Y-145097500D03*
X213210000Y-145097500D03*
%TD*%
D11*
%TO.C,S13*%
X223320000Y-150018750D03*
D12*
X228400000Y-150018750D03*
D11*
X233480000Y-150018750D03*
D13*
X225860000Y-144938750D03*
X230940000Y-144938750D03*
X224590000Y-147478750D03*
X232210000Y-147478750D03*
%TD*%
D11*
%TO.C,S5*%
X166320000Y-128587500D03*
D12*
X171400000Y-128587500D03*
D11*
X176480000Y-128587500D03*
D13*
X168860000Y-123507500D03*
X173940000Y-123507500D03*
X167590000Y-126047500D03*
X175210000Y-126047500D03*
%TD*%
D11*
%TO.C,S16*%
X209338861Y-176856288D03*
D12*
X214112500Y-178593750D03*
D11*
X218886139Y-180331212D03*
D13*
X213463143Y-172951380D03*
X218236782Y-174688843D03*
X211401002Y-174903834D03*
X218561460Y-177510027D03*
%TD*%
D11*
%TO.C,S4*%
X166320000Y-147637500D03*
D12*
X171400000Y-147637500D03*
D11*
X176480000Y-147637500D03*
D13*
X168860000Y-142557500D03*
X173940000Y-142557500D03*
X167590000Y-145097500D03*
X175210000Y-145097500D03*
%TD*%
D16*
%TO.C,TRRS1*%
X265152500Y-105898750D03*
X265152500Y-112898750D03*
X267452500Y-105898750D03*
X267452500Y-112898750D03*
D17*
X265152500Y-115598750D03*
X267452500Y-115598750D03*
X262852500Y-114498750D03*
X269752500Y-114498750D03*
X262852500Y-110498750D03*
X269752500Y-110498750D03*
X262852500Y-107498750D03*
X269752500Y-107498750D03*
%TD*%
D11*
%TO.C,S14*%
X223320000Y-130968750D03*
D12*
X228400000Y-130968750D03*
D11*
X233480000Y-130968750D03*
D13*
X225860000Y-125888750D03*
X230940000Y-125888750D03*
X224590000Y-128428750D03*
X232210000Y-128428750D03*
%TD*%
D11*
%TO.C,S17*%
X229327543Y-185218217D03*
D12*
X233726952Y-187758217D03*
D11*
X238126361Y-190298217D03*
D13*
X234067247Y-182088808D03*
X238466657Y-184628808D03*
X231697395Y-183653512D03*
X238296509Y-187463512D03*
%TD*%
D11*
%TO.C,S1*%
X147320000Y-152400000D03*
D12*
X152400000Y-152400000D03*
D11*
X157480000Y-152400000D03*
D13*
X149860000Y-147320000D03*
X154940000Y-147320000D03*
X148590000Y-149860000D03*
X156210000Y-149860000D03*
%TD*%
D11*
%TO.C,S8*%
X185320000Y-123825000D03*
D12*
X190400000Y-123825000D03*
D11*
X195480000Y-123825000D03*
D13*
X187860000Y-118745000D03*
X192940000Y-118745000D03*
X186590000Y-121285000D03*
X194210000Y-121285000D03*
%TD*%
M02*
