M48
; DRILL file {KiCad 7.0.1} date Sun 26 Mar 2023 02:24:28 AM EDT
; FORMAT={-:-/ absolute / metric / decimal}
; #@! TF.CreationDate,2023-03-26T02:24:28-04:00
; #@! TF.GenerationSoftware,Kicad,Pcbnew,7.0.1
; #@! TF.FileFunction,Plated,1,2,PTH
FMAT,2
METRIC
; #@! TA.AperFunction,Plated,PTH,ComponentDrill
T1C0.900
; #@! TA.AperFunction,Plated,PTH,ComponentDrill
T2C1.020
; #@! TA.AperFunction,Plated,PTH,ComponentDrill
T3C1.499
%
G90
G05
T3
X148.59Y-111.76
X148.59Y-130.81
X148.59Y-149.86
X149.86Y-109.22
X149.86Y-128.27
X149.86Y-147.32
X154.94Y-109.22
X154.94Y-128.27
X154.94Y-147.32
X156.21Y-111.76
X156.21Y-130.81
X156.21Y-149.86
X167.59Y-106.997
X167.59Y-126.047
X167.59Y-145.097
X168.86Y-104.457
X168.86Y-123.507
X168.86Y-142.558
X173.94Y-104.457
X173.94Y-123.507
X173.94Y-142.558
X175.21Y-106.997
X175.21Y-126.047
X175.21Y-145.097
X186.59Y-102.235
X186.59Y-121.285
X186.59Y-140.335
X187.86Y-99.695
X187.86Y-118.745
X187.86Y-137.795
X192.94Y-99.695
X192.94Y-118.745
X192.94Y-137.795
X194.21Y-102.235
X194.21Y-121.285
X194.21Y-140.335
X205.59Y-106.997
X205.59Y-126.047
X205.59Y-145.097
X206.86Y-104.457
X206.86Y-123.507
X206.86Y-142.558
X211.401Y-174.904
X211.94Y-104.457
X211.94Y-123.507
X211.94Y-142.558
X213.21Y-106.997
X213.21Y-126.047
X213.21Y-145.097
X213.463Y-172.951
X218.237Y-174.689
X218.561Y-177.51
X224.59Y-109.379
X224.59Y-128.429
X224.59Y-147.479
X225.86Y-106.839
X225.86Y-125.889
X225.86Y-144.939
X230.94Y-106.839
X230.94Y-125.889
X230.94Y-144.939
X231.697Y-183.654
X232.21Y-109.379
X232.21Y-128.429
X232.21Y-147.479
X234.067Y-182.089
X238.297Y-187.464
X238.467Y-184.629
X249.982Y-195.695
X252.588Y-194.566
X255.82Y-200.593
X256.48Y-197.831
T1
X262.852Y-105.294G85X262.852Y-105.894
G05
X262.852Y-108.294G85X262.852Y-108.894
G05
X262.852Y-112.294G85X262.852Y-112.894
G05
X265.152Y-113.394G85X265.152Y-113.994
G05
X267.452Y-113.394G85X267.452Y-113.994
G05
X269.752Y-105.294G85X269.752Y-105.894
G05
X269.752Y-108.294G85X269.752Y-108.894
G05
X269.752Y-112.294G85X269.752Y-112.894
G05
T2
X240.465Y-104.934G85X240.605Y-104.934
G05
X240.465Y-107.474G85X240.605Y-107.474
G05
X240.465Y-110.014G85X240.605Y-110.014
G05
X240.465Y-112.554G85X240.605Y-112.554
G05
X240.465Y-115.094G85X240.605Y-115.094
G05
X240.465Y-117.634G85X240.605Y-117.634
G05
X240.465Y-120.174G85X240.605Y-120.174
G05
X240.465Y-122.714G85X240.605Y-122.714
G05
X240.465Y-125.254G85X240.605Y-125.254
G05
X240.465Y-127.794G85X240.605Y-127.794
G05
X240.465Y-130.334G85X240.605Y-130.334
G05
X240.465Y-132.874G85X240.605Y-132.874
G05
X240.465Y-135.414G85X240.605Y-135.414
G05
X240.465Y-137.954G85X240.605Y-137.954
G05
X240.465Y-140.494G85X240.605Y-140.494
G05
X240.465Y-143.034G85X240.605Y-143.034
G05
X240.465Y-145.574G85X240.605Y-145.574
G05
X240.465Y-148.114G85X240.605Y-148.114
G05
X240.465Y-150.654G85X240.605Y-150.654
G05
X240.465Y-153.194G85X240.605Y-153.194
G05
X258.105Y-104.934G85X258.245Y-104.934
G05
X258.105Y-107.474G85X258.245Y-107.474
G05
X258.105Y-110.014G85X258.245Y-110.014
G05
X258.105Y-112.554G85X258.245Y-112.554
G05
X258.105Y-115.094G85X258.245Y-115.094
G05
X258.105Y-117.634G85X258.245Y-117.634
G05
X258.105Y-120.174G85X258.245Y-120.174
G05
X258.105Y-122.714G85X258.245Y-122.714
G05
X258.105Y-125.254G85X258.245Y-125.254
G05
X258.105Y-127.794G85X258.245Y-127.794
G05
X258.105Y-130.334G85X258.245Y-130.334
G05
X258.105Y-132.874G85X258.245Y-132.874
G05
X258.105Y-135.414G85X258.245Y-135.414
G05
X258.105Y-137.954G85X258.245Y-137.954
G05
X258.105Y-140.494G85X258.245Y-140.494
G05
X258.105Y-143.034G85X258.245Y-143.034
G05
X258.105Y-145.574G85X258.245Y-145.574
G05
X258.105Y-148.114G85X258.245Y-148.114
G05
X258.105Y-150.654G85X258.245Y-150.654
G05
X258.105Y-153.194G85X258.245Y-153.194
G05
T0
M30
