M48
; DRILL file {KiCad 7.0.1} date Sun 26 Mar 2023 12:06:30 AM EDT
; FORMAT={-:-/ absolute / metric / decimal}
; #@! TF.CreationDate,2023-03-26T00:06:30-04:00
; #@! TF.GenerationSoftware,Kicad,Pcbnew,7.0.1
; #@! TF.FileFunction,NonPlated,1,2,NPTH
FMAT,2
METRIC
; #@! TA.AperFunction,NonPlated,NPTH,ComponentDrill
T1C1.500
; #@! TA.AperFunction,NonPlated,NPTH,ComponentDrill
T2C1.702
; #@! TA.AperFunction,NonPlated,NPTH,ComponentDrill
T3C3.988
%
G90
G05
T1
X265.152Y-105.899
X265.152Y-112.899
X267.452Y-105.899
X267.452Y-112.899
T2
X147.32Y-114.3
X147.32Y-133.35
X147.32Y-152.4
X157.48Y-114.3
X157.48Y-133.35
X157.48Y-152.4
X166.32Y-109.537
X166.32Y-128.588
X166.32Y-147.637
X176.48Y-109.537
X176.48Y-128.588
X176.48Y-147.637
X185.32Y-104.775
X185.32Y-123.825
X185.32Y-142.875
X195.48Y-104.775
X195.48Y-123.825
X195.48Y-142.875
X204.32Y-109.537
X204.32Y-128.588
X204.32Y-147.637
X209.339Y-176.856
X214.48Y-109.537
X214.48Y-128.588
X214.48Y-147.637
X218.886Y-180.331
X223.32Y-111.919
X223.32Y-130.969
X223.32Y-150.019
X229.328Y-185.218
X233.48Y-111.919
X233.48Y-130.969
X233.48Y-150.019
X238.126Y-190.298
X247.377Y-196.824
X255.16Y-203.355
T3
X152.4Y-114.3
X152.4Y-133.35
X152.4Y-152.4
X171.4Y-109.537
X171.4Y-128.588
X171.4Y-147.637
X190.4Y-104.775
X190.4Y-123.825
X190.4Y-142.875
X209.4Y-109.537
X209.4Y-128.588
X209.4Y-147.637
X214.112Y-178.594
X228.4Y-111.919
X228.4Y-130.969
X228.4Y-150.019
X233.727Y-187.758
X251.268Y-200.09
T0
M30
